<?xml version="1.0" encoding="UTF-8"?>
<svg id="Camada_1" data-name="Camada 1" xmlns="http://www.w3.org/2000/svg" xmlns:xlink="http://www.w3.org/1999/xlink" viewBox="0 0 1080 1080">
  <defs>
    <style>
      .cls-1 {
        fill: #fff;
      }

      .cls-2 {
        fill: url(#Gradiente_sem_nome_85);
      }
    </style>
    <radialGradient id="Gradiente_sem_nome_85" data-name="Gradiente sem nome 85" cx="170.3" cy="896.36" fx="170.3" fy="896.36" r="1920.17" gradientUnits="userSpaceOnUse">
      <stop offset=".24" stop-color="#4b0000"/>
      <stop offset="1" stop-color="#e30613"/>
    </radialGradient>
  </defs>
  <rect class="cls-2" x="66.23" y="65.07" width="949.87" height="949.87" rx="180.61" ry="180.61"/>
  <g>
    <g>
      <path class="cls-1" d="M648.93,526.78c.66.66,1.11,2.01,1.2,2.94l-.16,20.76c-1.85,3.6-6.37,2.65-9.74,3.61-11.98,3.42-18.86,16.22-15.97,28.19.38,1.55,1.53,3.46,1.69,4.81.07.58.04.59-.54.54l-24.27-24.71c19.6-34.86-10.52-76.42-49.92-68.98-29.48,5.57-45.91,38.06-33.54,65.43,11.56,25.56,43.21,35.04,67.29,20.74l25.11,25.01c-.4.53-.53.58-1.18.48-1.01-.16-3.4-1.6-4.87-1.99-13.12-3.47-25.86,4.91-28.7,17.99-.7,3.25.37,8.26-4.05,8.94-2.99.46-11.95.33-15.14.04-5.49-.51-4.14-6.08-5.66-10.21-5.33-14.49-22.69-19.76-35.38-11.02-3.07,2.12-4.91,5.88-9.08,2.82-2.75-2.02-7.49-6.8-10.11-9.37-1.09-1.07-4.89-4.54-5.15-5.68-.67-2.97,1.78-4.35,3.1-6.49,8.28-13.42,2.21-31.16-13.2-35.36-2.47-.67-5.53-.49-7.49-1.17-1.43-.5-2.38-1.62-2.67-3.11.41-6.37-.62-13.56-.04-19.83.48-5.12,4.27-3.89,7.97-4.66,15.59-3.21,23.38-20.46,15.68-34.48-2.07-3.76-6.42-5.61-3.22-10.06,1.25-1.74,9.08-9.64,10.79-10.86,3.81-2.71,7.44,2.34,11.12,4.03,13.36,6.15,28.37-1.27,32.16-15.22.67-2.48.59-6.46,1.44-8.29.54-1.15,1.65-1.94,2.91-2.14,2.86-.44,12.88-.38,15.86-.03.69.08,1.57.35,2.11.78,1.92,1.52,1.86,6.76,2.84,9.43,4.99,13.69,21.01,19.42,33.71,12.23,3.52-1.99,6.3-7.18,10.56-4.18,4.07,4.73,10.7,8.9,14.61,13.53,2.85,3.38-.69,5.69-2.25,8.15-8.36,13.15-2.13,30.94,12.92,35.28,2.54.73,7.81.66,9.25,2.11Z"/>
      <circle class="cls-1" cx="560.39" cy="540.03" r="23.61"/>
    </g>
    <path class="cls-1" d="M445.93,721.08c-39.8,0-74.18-6.69-103.13-20.09-28.96-13.39-51.26-33.48-66.91-60.27-15.66-26.78-23.48-60.36-23.48-100.72s7.82-73.94,23.48-100.73c15.65-26.78,37.96-46.87,66.91-60.26,28.95-13.39,63.33-20.09,103.13-20.09h381.68v56.59h-381.68c-45.27,0-79.18,10.18-101.71,30.56-22.54,20.37-33.81,51.49-33.81,93.37s11.27,73.18,33.81,93.93c22.54,20.75,56.45,31.12,101.71,31.12h381.68v56.59h-381.68Z"/>
  </g>
</svg>