<?xml version="1.0" encoding="UTF-8"?>
<svg id="Camada_1" data-name="Camada 1" xmlns="http://www.w3.org/2000/svg" xmlns:xlink="http://www.w3.org/1999/xlink" viewBox="0 0 1080 1080">
  <defs>
    <style>
      .cls-1 {
        fill: #fff;
      }

      .cls-2 {
        fill: url(#Gradiente_sem_nome_266);
      }
    </style>
    <linearGradient id="Gradiente_sem_nome_266" data-name="Gradiente sem nome 266" x1="831.26" y1="33.32" x2="248.74" y2="1042.28" gradientUnits="userSpaceOnUse">
      <stop offset="0" stop-color="#95c11f"/>
      <stop offset="1" stop-color="#656032"/>
    </linearGradient>
  </defs>
  <path class="cls-2" d="M834.32,62.87H245.68c-99.34,0-180.61,81.28-180.61,180.61v588.64c0,99.34,81.28,180.61,180.61,180.61h588.64c99.34,0,180.61-81.28,180.61-180.61V243.48c0-99.34-81.28-180.61-180.61-180.61ZM316.84,298.85c37.75,3.1,68.26,40.38,61.31,78.2-38.2-3.64-66.16-40.55-61.31-78.2ZM763.71,338.31h-188.36c-36.13,0-62.35,7.97-78.67,23.91-16.33,15.94-24.49,36.85-24.49,62.74v30.72h5.79c0-4.25,3.38-9.8,10.14-16.66,6.76-6.86,16.03-10.29,27.82-10.29h39.08c6.42-.61,13-.95,19.76-.95h20.05c7.53,0,14.81.33,21.89.95h132.2v57.96h-17.79c2.33,3.12,4.57,6.31,6.63,9.66,13.36,21.69,20.05,47.16,20.05,76.41h-59.56c0-25.95-8.18-46.92-24.55-62.9-13.39-13.07-33.44-20.79-60.12-23.17h-57.47c-26.57,2.38-46.59,10.09-60.06,23.17-13.47,13.07-21.42,29.49-23.87,49.24v240.55h-60.09v-339.91h-5.11c0,4.25-3.38,9.81-10.14,16.66-6.77,6.86-16.04,10.29-27.82,10.29h-52.74v-57.96h95.81v-.95h.69v-2.82c0-29.17,6.66-54.57,19.99-76.21,13.33-21.63,32.21-38.44,56.65-50.42,24.44-11.98,53.07-17.97,85.92-17.97h188.36v57.95Z"/>
  <path class="cls-1" d="M489.43,298.33c-24.44,11.98-43.32,28.79-56.65,50.42-13.33,21.64-19.99,47.04-19.99,76.21v2.82h-.69v.95h-95.81v57.96h52.74c11.78,0,21.05-3.43,27.82-10.29,6.76-6.85,10.14-12.41,10.14-16.66h5.11v339.91h60.09v-240.55c2.45-19.75,10.4-36.17,23.87-49.24,13.47-13.07,33.5-20.79,60.06-23.17h57.47c26.68,2.38,46.73,10.09,60.12,23.17,16.36,15.98,24.55,36.95,24.55,62.9h59.56c0-29.24-6.68-54.71-20.05-76.41-2.06-3.35-4.3-6.54-6.63-9.66h17.79v-57.96h-132.2c-7.08-.62-14.36-.95-21.89-.95h-20.05c-6.76,0-13.34.33-19.76.95h-39.08c-11.79,0-21.06,3.43-27.82,10.29-6.77,6.86-10.14,12.42-10.14,16.66h-5.79v-30.72c0-25.88,8.16-46.8,24.49-62.74,16.32-15.94,42.55-23.91,78.67-23.91h188.36v-57.95h-188.36c-32.84,0-61.48,5.99-85.92,17.97Z"/>
  <path class="cls-1" d="M378.15,377.04c6.95-37.81-23.56-75.09-61.31-78.2-4.85,37.65,23.11,74.56,61.31,78.2Z"/>
</svg>