<?xml version="1.0" encoding="UTF-8"?>
<svg id="Camada_1" data-name="Camada 1" xmlns="http://www.w3.org/2000/svg" viewBox="0 0 1080 1080">
  <defs>
    <style>
      .cls-1 {
        fill: #fff;
      }

      .cls-2 {
        fill: #0053d4;
      }
    </style>
  </defs>
  <rect class="cls-2" x="65.07" y="65.07" width="949.87" height="949.87" rx="180.61" ry="180.61"/>
  <g>
    <path class="cls-1" d="M341.6,744.52v-347.27h55.62v347.27h-55.62Z"/>
    <path class="cls-1" d="M341.6,744.52v-347.27h55.35v33.37h5.43c8.5-8.5,17.54-15.19,27.13-20.08,9.58-4.88,19.71-8.32,30.39-10.31,10.67-1.99,21.88-2.99,33.64-2.99h100.66c30.93,0,57.79,5.61,80.58,16.82,22.79,11.22,40.43,26.95,52.9,47.21,12.48,20.26,18.72,44.05,18.72,71.35v211.89h-55.62v-211.89c0-24.24-7.64-43.82-22.93-58.74-15.29-14.92-39.84-22.38-73.66-22.38h-100.66c-33.64,0-58.15,7.46-73.52,22.38-15.38,14.92-23.06,34.5-23.06,58.74v211.89h-55.35Z"/>
    <g>
      <path class="cls-1" d="M362.44,281.61c27.12-2.43,44.88,28.88,28.04,50.5-3.58,4.6-8.15,6.11-10.5,11.95-.72,1.8-.82,3.57-1.68,5.09l-26.28-.09c-.31-.22-.54-2.82-.76-3.55-1.83-6.2-6.67-7.82-10.45-12.31-16.35-19.36-3.07-49.37,21.62-51.58Z"/>
      <path class="cls-1" d="M352.05,353.8h26.3l.46.46v6.15c0,1.66-2.24,4.41-3.65,5.27-.96.59-2.38.82-3.14,1.47-1.04.89-1.17,2.61-2.77,3.69-3.48,2.35-7.24,1.04-9.65-2-.42-.54-.63-1.66-1.11-1.97-.89-.58-2.47-.74-3.78-1.76-3.38-2.63-3.25-7.49-2.67-11.33Z"/>
    </g>
  </g>
  <path class="cls-1" d="M775.57,744.52v-37.89h37.89v37.89h-37.89Z"/>
</svg>